<svg width="30" height="30" viewBox="0 0 30 30" fill="none" xmlns="http://www.w3.org/2000/svg">
<path d="M3.57782 14.8638C2.70641 14.8638 2 14.2103 2 13.4042C2 13.0018 2.17963 12.6172 2.49644 12.3414L13.9186 2.39671C14.5262 1.86776 15.4738 1.86776 16.0814 2.39671L27.5036 12.3414C28.1381 12.8938 28.1684 13.8176 27.5711 14.4046C27.273 14.6976 26.8572 14.8638 26.4222 14.8638H26.0447V25.0808C26.0447 26.693 24.6319 28 22.8891 28H19.7304C18.425 28 17.3667 26.9729 17.3667 25.7059V20.7021C17.3667 19.9281 16.7131 19.2896 15.9052 19.2459L15.7889 19.2425H14.2111C13.3743 19.2425 12.6841 19.8471 12.637 20.5945L12.6333 20.7021V25.7059C12.6333 26.9729 11.575 28 10.2696 28H7.11089C5.36808 28 3.95525 26.693 3.95525 25.0808V14.8638H3.57782ZM20.2052 26.5404H22.8891C23.7605 26.5404 24.4669 25.8869 24.4669 25.0808V13.5572C24.4669 13.4727 24.5375 13.4042 24.6245 13.4042H26.0105C26.0976 13.4042 26.1681 13.3358 26.1681 13.2513C26.1681 13.2078 26.1491 13.1664 26.1157 13.1374L15.5261 3.91762C15.2268 3.657 14.7732 3.657 14.4739 3.91762L3.88425 13.1374C3.81947 13.1938 3.81406 13.2905 3.87217 13.3534C3.90206 13.3857 3.94471 13.4042 3.98947 13.4042H5.3755C5.46253 13.4042 5.53307 13.4727 5.53307 13.5572V25.0808C5.53307 25.8869 6.23949 26.5404 7.11089 26.5404H9.79488C10.4911 26.5404 11.0555 25.9926 11.0555 25.3169L11.0558 20.681L11.0608 20.5313C11.1572 18.9918 12.5372 17.783 14.2111 17.783L15.8117 17.7833L15.9736 17.7879C17.6378 17.8771 18.9445 19.1537 18.9445 20.7021V25.3169C18.9445 25.9926 19.5089 26.5404 20.2052 26.5404Z" fill="#EEEEEE" stroke="#EEEEEE"/>
</svg>
