<svg width="31" height="30" viewBox="0 0 31 30" fill="none" xmlns="http://www.w3.org/2000/svg">
<path fill-rule="evenodd" clip-rule="evenodd" d="M13.764 2.54513C13.5831 2.28428 13.3049 2.1042 12.9899 2.04396C12.6749 1.98373 12.3484 2.0482 12.0814 2.22339C11.8144 2.39858 11.6283 2.67035 11.5637 2.9797C11.499 3.28905 11.5609 3.61102 11.736 3.87572L13.7234 6.80878H6.65625C5.68655 6.80878 4.75657 7.18789 4.07089 7.86271C3.38521 8.53753 3 9.45279 3 10.4071L3 22.4016C3 23.356 3.38521 24.2712 4.07089 24.9461C4.75657 25.6209 5.68655 26 6.65625 26H25.3438C26.3134 26 27.2434 25.6209 27.9291 24.9461C28.6148 24.2712 29 23.356 29 22.4016V10.4071C29 9.45279 28.6148 8.53753 27.9291 7.86271C27.2434 7.18789 26.3134 6.80878 25.3438 6.80878H18.2766L20.264 3.87572C20.3549 3.74471 20.4184 3.59727 20.451 3.44192C20.4836 3.28657 20.4846 3.1264 20.4538 2.97069C20.4231 2.81498 20.3613 2.66681 20.2719 2.53477C20.1826 2.40273 20.0676 2.28944 19.9335 2.20145C19.7994 2.11346 19.6489 2.05252 19.4907 2.02217C19.3325 1.99181 19.1697 1.99264 19.0119 2.0246C18.854 2.05657 18.7041 2.11903 18.5709 2.20838C18.4378 2.29773 18.3239 2.41219 18.236 2.54513L16 5.84602L13.764 2.54513ZM15.9821 9.20768C15.994 9.20784 16.006 9.20784 16.0179 9.20768H25.3438C25.667 9.20768 25.977 9.33405 26.2055 9.55899C26.4341 9.78393 26.5625 10.089 26.5625 10.4071V22.4016C26.5625 22.7198 26.4341 23.0248 26.2055 23.2498C25.977 23.4747 25.667 23.6011 25.3438 23.6011H6.65625C6.33302 23.6011 6.02302 23.4747 5.79446 23.2498C5.5659 23.0248 5.4375 22.7198 5.4375 22.4016V10.4071C5.4375 10.089 5.5659 9.78393 5.79446 9.55899C6.02302 9.33405 6.33302 9.20768 6.65625 9.20768H15.9821Z" fill="#EEEEEE"/>
</svg>
