<svg width="31" height="30" viewBox="0 0 31 30" fill="none" xmlns="http://www.w3.org/2000/svg">
<path d="M27.7073 25.6364H23.3549C26.6994 23.2818 28.8891 19.3919 28.8891 14.9999C28.8891 7.8319 23.0575 2.00034 15.8896 2.00034C8.72091 2.00034 2.88879 7.8319 2.88879 14.9999C2.88879 22.1681 8.72091 28 15.8896 28H27.7073C28.36 28 28.8891 27.4709 28.8891 26.8182C28.8891 26.1655 28.36 25.6364 27.7073 25.6364ZM5.2524 14.9999C5.2524 9.1352 10.0242 4.36394 15.8896 4.36394C21.7542 4.36394 26.5255 9.1352 26.5255 14.9999C26.5255 20.8648 21.7542 25.6364 15.8896 25.6364C10.0242 25.6364 5.2524 20.8648 5.2524 14.9999Z" fill="white"/>
<path d="M15.8889 22.0908C17.1943 22.0908 18.2525 21.0326 18.2525 19.7272C18.2525 18.4218 17.1943 17.3636 15.8889 17.3636C14.5836 17.3636 13.5253 18.4218 13.5253 19.7272C13.5253 21.0326 14.5836 22.0908 15.8889 22.0908Z" fill="white"/>
<path d="M15.8889 12.6364C17.1943 12.6364 18.2525 11.5782 18.2525 10.2728C18.2525 8.96743 17.1943 7.90921 15.8889 7.90921C14.5836 7.90921 13.5253 8.96743 13.5253 10.2728C13.5253 11.5782 14.5836 12.6364 15.8889 12.6364Z" fill="white"/>
<path d="M11.1617 17.3636C12.4671 17.3636 13.5253 16.3054 13.5253 15C13.5253 13.6946 12.4671 12.6364 11.1617 12.6364C9.85632 12.6364 8.7981 13.6946 8.7981 15C8.7981 16.3054 9.85632 17.3636 11.1617 17.3636Z" fill="white"/>
<path d="M20.6162 17.3636C21.9216 17.3636 22.9798 16.3054 22.9798 15C22.9798 13.6946 21.9216 12.6364 20.6162 12.6364C19.3108 12.6364 18.2526 13.6946 18.2526 15C18.2526 16.3054 19.3108 17.3636 20.6162 17.3636Z" fill="white"/>
</svg>
